<svg width="24" height="24" viewBox="0 0 24 24" fill="none" xmlns="http://www.w3.org/2000/svg">
<g filter="url(#filter0_d_2_1750)">
<rect x="4" width="16" height="16" fill="#09090B"/>
<rect x="4.5" y="0.5" width="15" height="15" stroke="black"/>
<path d="M10 2H6.66667C6.29848 2 6 2.29848 6 2.66667V7.33333C6 7.70152 6.29848 8 6.66667 8H10C10.3682 8 10.6667 7.70152 10.6667 7.33333V2.66667C10.6667 2.29848 10.3682 2 10 2Z" stroke="#FAFAFA" stroke-width="2" stroke-linecap="round" stroke-linejoin="round"/>
<path d="M17.3335 2H14.0002C13.632 2 13.3335 2.29848 13.3335 2.66667V4.66667C13.3335 5.03486 13.632 5.33333 14.0002 5.33333H17.3335C17.7017 5.33333 18.0002 5.03486 18.0002 4.66667V2.66667C18.0002 2.29848 17.7017 2 17.3335 2Z" stroke="#FAFAFA" stroke-width="2" stroke-linecap="round" stroke-linejoin="round"/>
<path d="M17.3335 8H14.0002C13.632 8 13.3335 8.29848 13.3335 8.66667V13.3333C13.3335 13.7015 13.632 14 14.0002 14H17.3335C17.7017 14 18.0002 13.7015 18.0002 13.3333V8.66667C18.0002 8.29848 17.7017 8 17.3335 8Z" stroke="#FAFAFA" stroke-width="2" stroke-linecap="round" stroke-linejoin="round"/>
<path d="M10 10.6667H6.66667C6.29848 10.6667 6 10.9651 6 11.3333V13.3333C6 13.7015 6.29848 14 6.66667 14H10C10.3682 14 10.6667 13.7015 10.6667 13.3333V11.3333C10.6667 10.9651 10.3682 10.6667 10 10.6667Z" stroke="#FAFAFA" stroke-width="2" stroke-linecap="round" stroke-linejoin="round"/>
</g>
<defs>
<filter id="filter0_d_2_1750" x="0" y="0" width="24" height="24" filterUnits="userSpaceOnUse" color-interpolation-filters="sRGB">
<feFlood flood-opacity="0" result="BackgroundImageFix"/>
<feColorMatrix in="SourceAlpha" type="matrix" values="0 0 0 0 0 0 0 0 0 0 0 0 0 0 0 0 0 0 127 0" result="hardAlpha"/>
<feOffset dy="4"/>
<feGaussianBlur stdDeviation="2"/>
<feComposite in2="hardAlpha" operator="out"/>
<feColorMatrix type="matrix" values="0 0 0 0 0 0 0 0 0 0 0 0 0 0 0 0 0 0 0.25 0"/>
<feBlend mode="normal" in2="BackgroundImageFix" result="effect1_dropShadow_2_1750"/>
<feBlend mode="normal" in="SourceGraphic" in2="effect1_dropShadow_2_1750" result="shape"/>
</filter>
</defs>
</svg>
